<svg xmlns="http://www.w3.org/2000/svg" width="760" height="380" viewBox="0 0 760 380" font-family="'Montserrat','PingFang SC','Microsoft YaHei',sans-serif">
<rect width="760" height="380" fill="#faf6ef"/>
<rect x="1" y="1" width="758" height="378" fill="none" stroke="#d8cdb9" stroke-width="2"/>
<rect x="28" y="30" width="34" height="4" fill="#e2543e"/>
<text x="28" y="58" font-size="17" font-weight="700" fill="#1c2b33">Students&#x27; top post-offer anxieties</text>
<text x="28" y="78" font-size="12" fill="#44565f">Pick 3 (N=75); note housing ranks only fifth</text>
<text x="264" y="101" font-size="12.5" fill="#1c2b33" text-anchor="end" font-weight="700">Internships &amp; jobs after graduation</text>
<rect x="276" y="88" width="368" height="18" fill="#f3ecdf"/>
<rect x="276" y="88" width="250.2" height="18" fill="#e2543e"/>
<text x="654" y="102" font-size="13" font-weight="800" fill="#e2543e">68.0%</text>
<text x="264" y="135" font-size="12.5" fill="#1c2b33" text-anchor="end">Visa processing &amp; approval odds</text>
<rect x="276" y="122" width="368" height="18" fill="#f3ecdf"/>
<rect x="276" y="122" width="210.9" height="18" fill="#1f5d7a"/>
<text x="654" y="136" font-size="13" font-weight="800" fill="#1c2b33">57.3%</text>
<text x="264" y="169" font-size="12.5" fill="#1c2b33" text-anchor="end">Total cost &amp; budget control</text>
<rect x="276" y="156" width="368" height="18" fill="#f3ecdf"/>
<rect x="276" y="156" width="171.9" height="18" fill="#1f5d7a"/>
<text x="654" y="170" font-size="13" font-weight="800" fill="#1c2b33">46.7%</text>
<text x="264" y="203" font-size="12.5" fill="#1c2b33" text-anchor="end">Long-term migration planning</text>
<rect x="276" y="190" width="368" height="18" fill="#f3ecdf"/>
<rect x="276" y="190" width="132.5" height="18" fill="#1f5d7a"/>
<text x="654" y="204" font-size="13" font-weight="800" fill="#1c2b33">36.0%</text>
<text x="264" y="237" font-size="12.5" fill="#1c2b33" text-anchor="end">Housing &amp; settling in</text>
<rect x="276" y="224" width="368" height="18" fill="#f3ecdf"/>
<rect x="276" y="224" width="122.5" height="18" fill="#d9a441"/>
<text x="654" y="238" font-size="13" font-weight="800" fill="#1c2b33">33.3%</text>
<text x="264" y="271" font-size="12.5" fill="#1c2b33" text-anchor="end">Safety &amp; security</text>
<rect x="276" y="258" width="368" height="18" fill="#f3ecdf"/>
<rect x="276" y="258" width="34.2" height="18" fill="#1f5d7a"/>
<text x="654" y="272" font-size="13" font-weight="800" fill="#1c2b33">9.3%</text>
<text x="264" y="305" font-size="12.5" fill="#1c2b33" text-anchor="end">Part-time work policy</text>
<rect x="276" y="292" width="368" height="18" fill="#f3ecdf"/>
<rect x="276" y="292" width="14.7" height="18" fill="#1f5d7a"/>
<text x="654" y="306" font-size="13" font-weight="800" fill="#1c2b33">4.0%</text>
<text x="28" y="358" font-size="10.5" fill="#44565f">Source: uhomes Sydney channel survey, Jun 2026 · self-completed, N=75</text>
</svg>