<svg xmlns="http://www.w3.org/2000/svg" width="760" height="448" viewBox="0 0 760 448" font-family="'Montserrat','PingFang SC','Microsoft YaHei',sans-serif">
<rect width="760" height="448" fill="#faf6ef"/>
<rect x="1" y="1" width="758" height="446" fill="none" stroke="#d8cdb9" stroke-width="2"/>
<rect x="28" y="30" width="34" height="4" fill="#e2543e"/>
<text x="28" y="58" font-size="17" font-weight="700" fill="#1c2b33">Why partners think Sydney demand is falling</text>
<text x="28" y="78" font-size="12" fill="#44565f">Multi-select (N=75)</text>
<text x="264" y="101" font-size="12.5" fill="#1c2b33" text-anchor="end" font-weight="700">Diversion to HK/SG</text>
<rect x="276" y="88" width="368" height="18" fill="#f3ecdf"/>
<rect x="276" y="88" width="166.7" height="18" fill="#e2543e"/>
<text x="654" y="102" font-size="13" font-weight="800" fill="#e2543e">45.3%</text>
<text x="264" y="135" font-size="12.5" fill="#1c2b33" text-anchor="end" font-weight="700">Family budgets shrinking</text>
<rect x="276" y="122" width="368" height="18" fill="#f3ecdf"/>
<rect x="276" y="122" width="157.1" height="18" fill="#e2543e"/>
<text x="654" y="136" font-size="13" font-weight="800" fill="#e2543e">42.7%</text>
<text x="264" y="169" font-size="12.5" fill="#1c2b33" text-anchor="end">Sydney housing too costly</text>
<rect x="276" y="156" width="368" height="18" fill="#f3ecdf"/>
<rect x="276" y="156" width="117.8" height="18" fill="#1f5d7a"/>
<text x="654" y="170" font-size="13" font-weight="800" fill="#1c2b33">32.0%</text>
<text x="264" y="203" font-size="12.5" fill="#1c2b33" text-anchor="end">Entry bar &amp; tuition up</text>
<rect x="276" y="190" width="368" height="18" fill="#f3ecdf"/>
<rect x="276" y="190" width="113.0" height="18" fill="#1f5d7a"/>
<text x="654" y="204" font-size="13" font-weight="800" fill="#1c2b33">30.7%</text>
<text x="264" y="237" font-size="12.5" fill="#1c2b33" text-anchor="end">Tighter visa policy</text>
<rect x="276" y="224" width="368" height="18" fill="#f3ecdf"/>
<rect x="276" y="224" width="107.8" height="18" fill="#1f5d7a"/>
<text x="654" y="238" font-size="13" font-weight="800" fill="#1c2b33">29.3%</text>
<text x="264" y="271" font-size="12.5" fill="#1c2b33" text-anchor="end">High cost of living</text>
<rect x="276" y="258" width="368" height="18" fill="#f3ecdf"/>
<rect x="276" y="258" width="83.5" height="18" fill="#1f5d7a"/>
<text x="654" y="272" font-size="13" font-weight="800" fill="#1c2b33">22.7%</text>
<text x="264" y="305" font-size="12.5" fill="#1c2b33" text-anchor="end">Unclear job prospects</text>
<rect x="276" y="292" width="368" height="18" fill="#f3ecdf"/>
<rect x="276" y="292" width="63.7" height="18" fill="#1f5d7a"/>
<text x="654" y="306" font-size="13" font-weight="800" fill="#1c2b33">17.3%</text>
<text x="264" y="339" font-size="12.5" fill="#1c2b33" text-anchor="end">Tighter migration policy</text>
<rect x="276" y="326" width="368" height="18" fill="#f3ecdf"/>
<rect x="276" y="326" width="48.9" height="18" fill="#1f5d7a"/>
<text x="654" y="340" font-size="13" font-weight="800" fill="#1c2b33">13.3%</text>
<text x="264" y="373" font-size="12.5" fill="#1c2b33" text-anchor="end">Diversion to UK/US</text>
<rect x="276" y="360" width="368" height="18" fill="#f3ecdf"/>
<rect x="276" y="360" width="24.7" height="18" fill="#1f5d7a"/>
<text x="654" y="374" font-size="13" font-weight="800" fill="#1c2b33">6.7%</text>
<text x="28" y="426" font-size="10.5" fill="#44565f">Source: uhomes Sydney channel survey, Jun 2026 · self-completed, N=75</text>
</svg>