<svg xmlns="http://www.w3.org/2000/svg" width="760" height="278" viewBox="0 0 760 278" font-family="'Montserrat','PingFang SC','Microsoft YaHei',sans-serif">
<rect width="760" height="278" fill="#faf6ef"/>
<rect x="1" y="1" width="758" height="276" fill="none" stroke="#d8cdb9" stroke-width="2"/>
<rect x="28" y="30" width="34" height="4" fill="#e2543e"/>
<text x="28" y="58" font-size="17" font-weight="700" fill="#1c2b33">Where partners will shift resources, next 6-12 months</text>
<text x="28" y="78" font-size="12" fill="#44565f">Strongest momentum beyond Sydney (N=75)</text>
<text x="264" y="101" font-size="12.5" fill="#1c2b33" text-anchor="end" font-weight="700">Melbourne</text>
<rect x="276" y="88" width="368" height="18" fill="#f3ecdf"/>
<rect x="276" y="88" width="210.9" height="18" fill="#e2543e"/>
<text x="654" y="102" font-size="13" font-weight="800" fill="#e2543e">57.3%</text>
<text x="264" y="135" font-size="12.5" fill="#1c2b33" text-anchor="end">Brisbane / Gold Coast</text>
<rect x="276" y="122" width="368" height="18" fill="#f3ecdf"/>
<rect x="276" y="122" width="127.7" height="18" fill="#d9a441"/>
<text x="654" y="136" font-size="13" font-weight="800" fill="#1c2b33">34.7%</text>
<text x="264" y="169" font-size="12.5" fill="#1c2b33" text-anchor="end">Adelaide</text>
<rect x="276" y="156" width="368" height="18" fill="#f3ecdf"/>
<rect x="276" y="156" width="24.7" height="18" fill="#1f5d7a"/>
<text x="654" y="170" font-size="13" font-weight="800" fill="#1c2b33">6.7%</text>
<text x="264" y="203" font-size="12.5" fill="#1c2b33" text-anchor="end">Perth / Canberra</text>
<rect x="276" y="190" width="368" height="18" fill="#f3ecdf"/>
<rect x="276" y="190" width="4.8" height="18" fill="#1f5d7a"/>
<text x="654" y="204" font-size="13" font-weight="800" fill="#1c2b33">1.3%</text>
<text x="28" y="256" font-size="10.5" fill="#44565f">Source: uhomes.com Sydney channel survey, Jun 2026 · self-completed, N=75</text>
</svg>