<svg xmlns="http://www.w3.org/2000/svg" width="760" height="312" viewBox="0 0 760 312" font-family="'Montserrat','PingFang SC','Microsoft YaHei',sans-serif">
<rect width="760" height="312" fill="#faf6ef"/>
<rect x="1" y="1" width="758" height="310" fill="none" stroke="#d8cdb9" stroke-width="2"/>
<rect x="28" y="30" width="34" height="4" fill="#e2543e"/>
<text x="28" y="58" font-size="17" font-weight="700" fill="#1c2b33">Sydney enquiry demand vs the 2025 fall intake</text>
<text x="28" y="78" font-size="12" fill="#44565f">As felt by interviewed partners (N=143)</text>
<text x="264" y="101" font-size="12.5" fill="#1c2b33" text-anchor="end" font-weight="700">Marked decline</text>
<rect x="276" y="88" width="368" height="18" fill="#f3ecdf"/>
<rect x="276" y="88" width="139.1" height="18" fill="#e2543e"/>
<text x="654" y="102" font-size="13" font-weight="800" fill="#e2543e">37.8%</text>
<text x="264" y="135" font-size="12.5" fill="#1c2b33" text-anchor="end">Mild decline</text>
<rect x="276" y="122" width="368" height="18" fill="#f3ecdf"/>
<rect x="276" y="122" width="105.6" height="18" fill="#e2543e"/>
<text x="654" y="136" font-size="13" font-weight="800" fill="#1c2b33">28.7%</text>
<text x="264" y="169" font-size="12.5" fill="#1c2b33" text-anchor="end">Broadly flat</text>
<rect x="276" y="156" width="368" height="18" fill="#f3ecdf"/>
<rect x="276" y="156" width="90.2" height="18" fill="#1f5d7a"/>
<text x="654" y="170" font-size="13" font-weight="800" fill="#1c2b33">24.5%</text>
<text x="264" y="203" font-size="12.5" fill="#1c2b33" text-anchor="end">Mild increase</text>
<rect x="276" y="190" width="368" height="18" fill="#f3ecdf"/>
<rect x="276" y="190" width="25.8" height="18" fill="#d9a441"/>
<text x="654" y="204" font-size="13" font-weight="800" fill="#1c2b33">7.0%</text>
<text x="264" y="237" font-size="12.5" fill="#1c2b33" text-anchor="end">Marked increase</text>
<rect x="276" y="224" width="368" height="18" fill="#f3ecdf"/>
<rect x="276" y="224" width="7.7" height="18" fill="#d9a441"/>
<text x="654" y="238" font-size="13" font-weight="800" fill="#1c2b33">2.1%</text>
<text x="28" y="290" font-size="10.5" fill="#44565f">Source: uhomes.com Sydney channel survey, Jun 2026 · interviews, N=143</text>
</svg>